HIERARCHY
ROOT Hips
{
	OFFSET 0.000000 0.000000 0.000000
	CHANNELS 6 Xposition Yposition Zposition Zrotation Yrotation Xrotation 
	JOINT LowerBack
	{
		OFFSET 0.000000 0.000000 0.000000
		CHANNELS 3 Zrotation Yrotation Xrotation
		JOINT Spine
		{
			OFFSET 0.028270 2.035590 -0.193380
			CHANNELS 3 Zrotation Yrotation Xrotation
			JOINT Spine1
			{
				OFFSET 0.056720 2.048850 -0.042750
				CHANNELS 3 Zrotation Yrotation Xrotation
				JOINT Neck
				{
					OFFSET 0.000000 0.000000 0.000000
					CHANNELS 3 Zrotation Yrotation Xrotation
					JOINT Neck1
					{
						OFFSET -0.054170 1.746240 0.172020
						CHANNELS 3 Zrotation Yrotation Xrotation
						JOINT Head
						{
							OFFSET 0.104070 1.761360 -0.123970
							CHANNELS 3 Zrotation Yrotation Xrotation
							End Site
							{
								OFFSET 0.000000 0.000000 0.000000
							}
						}
					}
				}
				JOINT LeftShoulder
				{
					OFFSET 0.000000 0.000000 0.000000
					CHANNELS 3 Zrotation Yrotation Xrotation
					JOINT LeftArm
					{
						OFFSET 3.362410 1.200890 -0.311210
						CHANNELS 3 Zrotation Yrotation Xrotation
						JOINT LeftForeArm
						{
							OFFSET 4.983000 -0.000000 -0.000000
							CHANNELS 3 Zrotation Yrotation Xrotation
							JOINT LeftHand
							{
								OFFSET 3.483560 -0.000000 -0.000000
								CHANNELS 3 Zrotation Yrotation Xrotation
								JOINT LeftFingerBase
								{
									OFFSET 0.000000 0.000000 0.000000
									CHANNELS 3 Zrotation Yrotation Xrotation
									JOINT LeftHandIndex1
									{
										OFFSET 0.715260 -0.000000 -0.000000
										CHANNELS 3 Zrotation Yrotation Xrotation
										End Site
										{
											OFFSET 0.000000 0.000000 0.000000
										}
									}
								}
								JOINT LThumb
								{
									OFFSET 0.000000 0.000000 0.000000
									CHANNELS 3 Zrotation Yrotation Xrotation
									End Site
									{
										OFFSET 0.000000 0.000000 0.000000
									}
								}
							}
						}
					}
				}
				JOINT RightShoulder
				{
					OFFSET 0.000000 0.000000 0.000000
					CHANNELS 3 Zrotation Yrotation Xrotation
					JOINT RightArm
					{
						OFFSET -3.136600 1.374050 -0.404650
						CHANNELS 3 Zrotation Yrotation Xrotation
						JOINT RightForeArm
						{
							OFFSET -5.241900 -0.000000 -0.000000
							CHANNELS 3 Zrotation Yrotation Xrotation
							JOINT RightHand
							{
								OFFSET -3.444170 -0.000000 -0.000000
								CHANNELS 3 Zrotation Yrotation Xrotation
								JOINT RightFingerBase
								{
									OFFSET 0.000000 0.000000 0.000000
									CHANNELS 3 Zrotation Yrotation Xrotation
									JOINT RightHandIndex1
									{
										OFFSET -0.622530 -0.000000 -0.000000
										CHANNELS 3 Zrotation Yrotation Xrotation
										End Site
										{
											OFFSET 0.000000 0.000000 0.000000
										}
									}
								}
								JOINT RThumb
								{
									OFFSET 0.000000 0.000000 0.000000
									CHANNELS 3 Zrotation Yrotation Xrotation
									End Site
									{
										OFFSET 0.000000 0.000000 0.000000
									}
								}
							}
						}
					}
				}
			}
		}
	}
}
}
MOTION
Frames: 13
Frame Time: 0.008333
2.733783 17.046163 0.333357 172.029557 -79.900616 -166.398641 -4.389879 -1.375779 -5.293488 -1.185318 -1.186697 -3.414576 -4.181942 -1.279063 2.035126 10.756750 -18.367869 -10.134382 -0.336240 0.012272 -0.588119 0.000000 0.000000 0.000000 7.168434 18.867213 0.738104 -42.208197 8.600537 -15.214822 -179.310536 -79.403675 -179.995448 0.350136 -5.153548 -0.018585 -0.054139 0.448872 0.000000 0.000000 0.000000 0.000000 0.000000 0.000000 0.000000 1.757688 -11.351625 -1.751528 33.887047 12.941963 -12.573216 -179.790397 70.738512 179.923326 -8.746342 8.172840 -0.682960 0.115595 -0.630184 -0.000000 0.000000 0.000000 0.000000 0.000000 0.000000 0.000000 
2.672719 17.075105 0.348184 173.107915 -78.918399 -167.603636 -3.911527 -1.361374 -5.789346 -1.066083 -1.216563 -3.515000 -4.112067 -1.314776 2.048572 10.902665 -18.614820 -10.258665 -0.320788 0.015130 -0.617449 0.000000 0.000000 0.000000 7.058071 18.957529 0.704411 -42.808261 9.166831 -15.081466 -179.297687 -79.349438 -179.994434 0.173694 -4.952086 -0.009356 -0.051222 0.441924 0.000000 0.000000 0.000000 0.000000 0.000000 0.000000 0.000000 1.946590 -11.511415 -1.739006 33.702745 12.981873 -12.545484 -179.813696 70.595199 179.924412 -8.672605 8.087447 -0.670454 0.116179 -0.627557 -0.000000 0.000000 0.000000 0.000000 0.000000 0.000000 0.000000 
2.609385 17.106256 0.364228 174.138652 -77.972005 -168.737380 -3.373541 -1.352161 -6.302849 -0.933380 -1.257179 -3.620122 -4.037891 -1.360612 2.056084 11.036869 -18.879072 -10.387566 -0.305627 0.018072 -0.648401 0.000000 0.000000 0.000000 6.967874 18.993873 0.668396 -43.329526 9.650522 -14.913563 -179.286407 -79.287719 -179.993629 0.021295 -4.728861 -0.001826 -0.048449 0.435544 0.000000 0.000000 0.000000 0.000000 0.000000 0.000000 0.000000 2.133335 -11.695995 -1.715295 33.469070 13.015866 -12.557099 -179.840064 70.451762 179.925687 -8.580522 7.992684 -0.655954 0.116629 -0.624594 -0.000000 0.000000 0.000000 0.000000 0.000000 0.000000 0.000000 
2.544498 17.138755 0.381189 175.130731 -77.066816 -169.809649 -2.782131 -1.348985 -6.826874 -0.788476 -1.308947 -3.729035 -3.960020 -1.416745 2.055936 11.158930 -19.158653 -10.519216 -0.290669 0.021095 -0.680624 0.000000 0.000000 0.000000 6.907744 18.964150 0.630649 -43.759026 10.044331 -14.705780 -179.277626 -79.226022 -179.993073 -0.097386 -4.489864 0.003506 -0.045939 0.429935 -0.000000 0.000000 0.000000 0.000000 0.000000 0.000000 0.000000 2.315040 -11.906164 -1.680227 33.186822 13.051163 -12.612655 -179.868595 70.309550 179.927064 -8.478805 7.891906 -0.640457 0.117121 -0.621443 -0.000000 0.000000 0.000000 0.000000 0.000000 0.000000 0.000000 
2.478920 17.171634 0.398674 176.081260 -76.208058 -170.820727 -2.147009 -1.353247 -7.353601 -0.633368 -1.372508 -3.840649 -3.879329 -1.483628 2.046686 11.268973 -19.450640 -10.650688 -0.276059 0.024159 -0.713464 0.000000 0.000000 0.000000 6.888195 18.856356 0.591637 -44.085984 10.343720 -14.456680 -179.272337 -79.172102 -179.992796 -0.175591 -4.242681 0.006739 -0.043740 0.425316 -0.000000 0.000000 0.000000 0.000000 0.000000 0.000000 0.000000 2.490047 -12.142157 -1.634332 32.860006 13.096495 -12.714527 -179.898271 70.173803 179.928457 -8.376770 7.788584 -0.624867 0.117831 -0.618239 -0.000000 0.000000 0.000000 0.000000 0.000000 0.000000 0.000000 
2.413541 17.203887 0.416340 176.992085 -75.399856 -171.775503 -1.478436 -1.365773 -7.875957 -0.470281 -1.447847 -3.954081 -3.797000 -1.561102 2.027084 11.367948 -19.753813 -10.778033 -0.261988 0.027200 -0.745938 0.000000 0.000000 0.000000 6.920878 18.654903 0.551429 -44.303323 10.550873 -14.170056 -179.271589 -79.133677 -179.992805 -0.210171 -3.997088 0.007873 -0.041804 0.421908 -0.000000 0.000000 0.000000 0.000000 0.000000 0.000000 0.000000 2.657393 -12.405719 -1.578285 32.494776 13.160475 -12.863916 -179.928230 70.049685 179.929782 -8.283620 7.686184 -0.610278 0.118946 -0.615119 -0.000000 0.000000 0.000000 0.000000 0.000000 0.000000 0.000000 
2.349005 17.234611 0.433507 177.798925 -74.646727 -172.614787 -0.804546 -1.392802 -8.385653 -0.304893 -1.538825 -4.067199 -3.714777 -1.653047 1.998683 11.458833 -20.057432 -10.897538 -0.248970 0.030141 -0.777131 0.000000 0.000000 0.000000 7.011676 18.368005 0.511510 -44.393451 10.650671 -13.846833 -179.276226 -79.123750 -179.993107 -0.198287 -3.761799 0.007207 -0.040194 0.419898 0.000000 0.000000 0.000000 0.000000 0.000000 0.000000 0.000000 2.819521 -12.691602 -1.516243 32.102457 13.254533 -13.055134 -179.956715 69.941609 179.930932 -8.211289 7.584977 -0.597492 0.120626 -0.612116 -0.000000 0.000000 0.000000 0.000000 0.000000 0.000000 0.000000 
2.286205 17.262891 0.449994 178.530597 -73.951381 -173.371635 -0.131328 -1.433178 -8.876753 -0.138836 -1.643612 -4.179428 -3.634249 -1.757585 1.960552 11.543291 -20.364664 -11.004725 -0.237170 0.032899 -0.805785 0.000000 0.000000 0.000000 7.168229 17.976969 0.471296 -44.353627 10.654901 -13.499943 -179.287101 -79.147787 -179.993687 -0.142970 -3.544613 0.005040 -0.038743 0.419386 -0.000000 0.000000 0.000000 0.000000 0.000000 0.000000 0.000000 2.976595 -13.004368 -1.448521 31.690831 13.384722 -13.286311 -179.983685 69.854105 179.931878 -8.163269 7.488739 -0.587008 0.122973 -0.609354 -0.000000 0.000000 0.000000 0.000000 0.000000 0.000000 0.000000 
2.225815 17.288013 0.465344 179.145742 -73.317389 -174.011141 0.517419 -1.491226 -9.343227 0.022801 -1.764314 -4.289072 -3.557430 -1.876953 1.914498 11.625029 -20.668638 -11.096055 -0.227148 0.035383 -0.830893 0.000000 0.000000 0.000000 7.390766 17.489146 0.431673 -44.169901 10.555903 -13.136805 -179.304744 -79.216931 -179.994543 -0.045420 -3.350797 0.001771 -0.037454 0.420404 -0.000000 0.000000 0.000000 0.000000 0.000000 0.000000 0.000000 3.133032 -13.340631 -1.378649 31.271012 13.557908 -13.549526 179.991698 69.789699 179.932580 -8.144618 7.397475 -0.579124 0.126029 -0.606831 0.000000 0.000000 0.000000 0.000000 0.000000 0.000000 0.000000 
2.168444 17.309390 0.479305 179.626029 -72.747238 -174.521080 1.123644 -1.569572 -9.779524 0.175953 -1.901703 -4.394534 -3.486267 -2.012076 1.862355 11.707589 -20.966080 -11.168945 -0.219248 0.037527 -0.851653 0.000000 0.000000 0.000000 7.675962 16.911323 0.393256 -43.829503 10.347282 -12.766350 -179.329458 -79.341321 -179.995673 0.092361 -3.181723 -0.002502 -0.036328 0.422881 -0.000000 0.000000 0.000000 0.000000 0.000000 0.000000 0.000000 3.293226 -13.699376 -1.309320 30.852274 13.777720 -13.836387 179.969684 69.748397 179.933018 -8.156354 7.312079 -0.573839 0.129774 -0.604553 -0.000000 0.000000 0.000000 0.000000 0.000000 0.000000 0.000000 
2.114409 17.326711 0.491788 179.966865 -72.244026 -174.899635 1.673811 -1.669955 -10.182608 0.317384 -2.056054 -4.494507 -3.422720 -2.163394 1.806496 11.794125 -21.253963 -11.221904 -0.213839 0.039276 -0.867514 0.000000 0.000000 0.000000 8.015974 16.254938 0.356733 -43.319392 10.019515 -12.395548 -179.361284 -79.532612 -179.997090 0.269503 -3.034855 -0.007678 -0.035437 0.426653 0.000000 0.000000 0.000000 0.000000 0.000000 0.000000 0.000000 3.462366 -14.078971 -1.242819 30.442073 14.043010 -14.138187 179.950217 69.731593 179.933226 -8.195983 7.232999 -0.570954 0.134105 -0.602468 -0.000000 0.000000 0.000000 0.000000 0.000000 0.000000 0.000000 
2.064213 17.339779 0.502815 -179.835635 -71.810509 -175.148620 2.156858 -1.793532 -10.550415 0.444382 -2.227235 -4.587776 -3.368261 -2.330950 1.749092 11.888170 -21.530319 -11.254665 -0.210972 0.040617 -0.878264 0.000000 0.000000 0.000000 8.400393 15.534347 0.322768 -42.627481 9.559358 -12.029229 -179.400076 -79.804640 -179.998815 0.486499 -2.905403 -0.013660 -0.034885 0.431508 0.000000 0.000000 0.000000 0.000000 0.000000 0.000000 0.000000 3.645327 -14.478034 -1.181160 30.046014 14.349655 -14.446469 179.933112 69.733418 179.933244 -8.258362 7.160077 -0.570068 0.138867 -0.600536 0.000000 0.000000 0.000000 0.000000 0.000000 0.000000 0.000000 
2.018016 17.348679 0.512538 -179.770120 -71.449245 -175.279720 2.567062 -1.940174 -10.882663 0.555287 -2.414343 -4.673381 -3.324154 -2.513984 1.692580 11.992688 -21.793511 -11.267956 -0.210645 0.041553 -0.883949 0.000000 0.000000 0.000000 8.817326 14.765710 0.292087 -41.745016 8.949608 -11.669907 -179.445470 -80.175158 179.999124 0.744129 -2.786606 -0.020347 -0.034796 0.437209 0.000000 0.000000 0.000000 0.000000 0.000000 0.000000 0.000000 3.846860 -14.894860 -1.125577 29.667597 14.687124 -14.753807 179.917968 69.749485 179.933127 -8.336488 7.093480 -0.570681 0.143869 -0.598682 0.000000 0.000000 0.000000 0.000000 0.000000 0.000000 0.000000 
